solid OpenSCAD_Model
  facet normal 0 0 -1
    outer loop
      vertex 49.9778 0 0
      vertex 100 0 0
      vertex 70.7107 -70.7107 0
    endloop
  endfacet
  facet normal 0 0 -1
    outer loop
      vertex 100 0 0
      vertex 49.9778 0 0
      vertex 70.7107 70.7107 0
    endloop
  endfacet
  facet normal 0 0 -1
    outer loop
      vertex 70.7107 -70.7107 0
      vertex 24.9889 -43.282 0
      vertex 49.9778 0 0
    endloop
  endfacet
  facet normal 0 0 -1
    outer loop
      vertex 0 -100 0
      vertex 24.9889 -43.282 0
      vertex 70.7107 -70.7107 0
    endloop
  endfacet
  facet normal 0 0 -1
    outer loop
      vertex 0 -100 0
      vertex -24.9889 -43.282 0
      vertex 24.9889 -43.282 0
    endloop
  endfacet
  facet normal 0 0 -1
    outer loop
      vertex -70.7107 -70.7107 0
      vertex -24.9889 -43.282 0
      vertex 0 -100 0
    endloop
  endfacet
  facet normal -0 0 -1
    outer loop
      vertex -24.9889 -43.282 0
      vertex -70.7107 -70.7107 0
      vertex -49.9778 0 0
    endloop
  endfacet
  facet normal 0 0 -1
    outer loop
      vertex 24.9889 43.282 0
      vertex 70.7107 70.7107 0
      vertex 49.9778 0 0
    endloop
  endfacet
  facet normal 0 0 -1
    outer loop
      vertex 24.9889 43.282 0
      vertex 0 100 0
      vertex 70.7107 70.7107 0
    endloop
  endfacet
  facet normal 0 0 -1
    outer loop
      vertex -24.9889 43.282 0
      vertex 0 100 0
      vertex 24.9889 43.282 0
    endloop
  endfacet
  facet normal 0 0 -1
    outer loop
      vertex -70.7107 70.7107 0
      vertex -24.9889 43.282 0
      vertex -49.9778 0 0
    endloop
  endfacet
  facet normal 0 0 -1
    outer loop
      vertex -24.9889 43.282 0
      vertex -70.7107 70.7107 0
      vertex 0 100 0
    endloop
  endfacet
  facet normal 0 0 -1
    outer loop
      vertex -100 0 0
      vertex -49.9778 0 0
      vertex -70.7107 -70.7107 0
    endloop
  endfacet
  facet normal 0 0 -1
    outer loop
      vertex -49.9778 0 0
      vertex -100 0 0
      vertex -70.7107 70.7107 0
    endloop
  endfacet
  facet normal 0 -0.894427 0.447214
    outer loop
      vertex -17.1132 -29.641 7
      vertex 10 -17.3205 31.641
      vertex -10 -17.3205 31.641
    endloop
  endfacet
  facet normal 0 -0.894427 0.447214
    outer loop
      vertex 10 -17.3205 31.641
      vertex -17.1132 -29.641 7
      vertex 17.1132 -29.641 7
    endloop
  endfacet
  facet normal 0 0.894427 0.447214
    outer loop
      vertex 17.1132 29.641 7
      vertex -10 17.3205 31.641
      vertex 10 17.3205 31.641
    endloop
  endfacet
  facet normal 0 0.894427 0.447214
    outer loop
      vertex -10 17.3205 31.641
      vertex 17.1132 29.641 7
      vertex -17.1132 29.641 7
    endloop
  endfacet
  facet normal 0 0 1
    outer loop
      vertex 10 17.3205 31.641
      vertex 10 -17.3205 31.641
      vertex 20 0 31.641
    endloop
  endfacet
  facet normal -0 0 1
    outer loop
      vertex -10 17.3205 31.641
      vertex 10 -17.3205 31.641
      vertex 10 17.3205 31.641
    endloop
  endfacet
  facet normal 0 0 1
    outer loop
      vertex -10 17.3205 31.641
      vertex -10 -17.3205 31.641
      vertex 10 -17.3205 31.641
    endloop
  endfacet
  facet normal 0 -0 1
    outer loop
      vertex -10 -17.3205 31.641
      vertex -10 17.3205 31.641
      vertex -20 0 31.641
    endloop
  endfacet
  facet normal 0.774596 0.447214 0.447214
    outer loop
      vertex 34.2265 0 7
      vertex 10 17.3205 31.641
      vertex 20 0 31.641
    endloop
  endfacet
  facet normal 0.774596 0.447215 0.447213
    outer loop
      vertex 10 17.3205 31.641
      vertex 34.2265 0 7
      vertex 17.1132 29.641 7
    endloop
  endfacet
  facet normal -0.774596 -0.447214 0.447214
    outer loop
      vertex -34.2265 0 7
      vertex -10 -17.3205 31.641
      vertex -20 0 31.641
    endloop
  endfacet
  facet normal -0.774596 -0.447215 0.447213
    outer loop
      vertex -10 -17.3205 31.641
      vertex -34.2265 0 7
      vertex -17.1132 -29.641 7
    endloop
  endfacet
  facet normal -0.774596 0.447215 0.447213
    outer loop
      vertex -34.2265 0 7
      vertex -10 17.3205 31.641
      vertex -17.1132 29.641 7
    endloop
  endfacet
  facet normal -0.774596 0.447214 0.447214
    outer loop
      vertex -10 17.3205 31.641
      vertex -34.2265 0 7
      vertex -20 0 31.641
    endloop
  endfacet
  facet normal 0.774596 -0.447214 0.447214
    outer loop
      vertex 10 -17.3205 31.641
      vertex 34.2265 0 7
      vertex 20 0 31.641
    endloop
  endfacet
  facet normal 0.774596 -0.447215 0.447213
    outer loop
      vertex 34.2265 0 7
      vertex 10 -17.3205 31.641
      vertex 17.1132 -29.641 7
    endloop
  endfacet
  facet normal 0 0 1
    outer loop
      vertex 34.2265 0 7
      vertex 100 0 7
      vertex 70.7107 70.7107 7
    endloop
  endfacet
  facet normal 0 0 1
    outer loop
      vertex 100 0 7
      vertex 34.2265 0 7
      vertex 70.7107 -70.7107 7
    endloop
  endfacet
  facet normal 0 0 1
    outer loop
      vertex 70.7107 70.7107 7
      vertex 17.1132 29.641 7
      vertex 34.2265 0 7
    endloop
  endfacet
  facet normal 0 0 1
    outer loop
      vertex 0 100 7
      vertex 17.1132 29.641 7
      vertex 70.7107 70.7107 7
    endloop
  endfacet
  facet normal 0 0 1
    outer loop
      vertex 0 100 7
      vertex -17.1132 29.641 7
      vertex 17.1132 29.641 7
    endloop
  endfacet
  facet normal -0 0 1
    outer loop
      vertex -70.7107 70.7107 7
      vertex -17.1132 29.641 7
      vertex 0 100 7
    endloop
  endfacet
  facet normal 0 0 1
    outer loop
      vertex -17.1132 29.641 7
      vertex -70.7107 70.7107 7
      vertex -34.2265 0 7
    endloop
  endfacet
  facet normal -0 0 1
    outer loop
      vertex 17.1132 -29.641 7
      vertex 70.7107 -70.7107 7
      vertex 34.2265 0 7
    endloop
  endfacet
  facet normal 0 0 1
    outer loop
      vertex 17.1132 -29.641 7
      vertex 0 -100 7
      vertex 70.7107 -70.7107 7
    endloop
  endfacet
  facet normal -0 0 1
    outer loop
      vertex -17.1132 -29.641 7
      vertex 0 -100 7
      vertex 17.1132 -29.641 7
    endloop
  endfacet
  facet normal 0 0 1
    outer loop
      vertex -70.7107 -70.7107 7
      vertex -17.1132 -29.641 7
      vertex -34.2265 0 7
    endloop
  endfacet
  facet normal 0 0 1
    outer loop
      vertex -100 0 7
      vertex -34.2265 0 7
      vertex -70.7107 70.7107 7
    endloop
  endfacet
  facet normal 0 0 1
    outer loop
      vertex -17.1132 -29.641 7
      vertex -70.7107 -70.7107 7
      vertex 0 -100 7
    endloop
  endfacet
  facet normal 0 0 1
    outer loop
      vertex -34.2265 0 7
      vertex -100 0 7
      vertex -70.7107 -70.7107 7
    endloop
  endfacet
  facet normal 0 0.894427 -0.447214
    outer loop
      vertex 20 34.641 -17.282
      vertex -24.9889 43.282 0
      vertex 24.9889 43.282 0
    endloop
  endfacet
  facet normal 0 0.894427 -0.447214
    outer loop
      vertex -24.9889 43.282 0
      vertex 20 34.641 -17.282
      vertex -20 34.641 -17.282
    endloop
  endfacet
  facet normal 0 -0.894427 -0.447214
    outer loop
      vertex -20 -34.641 -17.282
      vertex 24.9889 -43.282 0
      vertex -24.9889 -43.282 0
    endloop
  endfacet
  facet normal 0 -0.894427 -0.447214
    outer loop
      vertex 24.9889 -43.282 0
      vertex -20 -34.641 -17.282
      vertex 20 -34.641 -17.282
    endloop
  endfacet
  facet normal 0 0 -1
    outer loop
      vertex 20 -34.641 -17.282
      vertex 20 34.641 -17.282
      vertex 40 0 -17.282
    endloop
  endfacet
  facet normal 0 0 -1
    outer loop
      vertex -20 -34.641 -17.282
      vertex 20 34.641 -17.282
      vertex 20 -34.641 -17.282
    endloop
  endfacet
  facet normal 0 0 -1
    outer loop
      vertex -20 -34.641 -17.282
      vertex -20 34.641 -17.282
      vertex 20 34.641 -17.282
    endloop
  endfacet
  facet normal 0 -0 -1
    outer loop
      vertex -20 34.641 -17.282
      vertex -20 -34.641 -17.282
      vertex -40 0 -17.282
    endloop
  endfacet
  facet normal 0.774596 -0.447213 -0.447215
    outer loop
      vertex 49.9778 0 0
      vertex 20 -34.641 -17.282
      vertex 40 0 -17.282
    endloop
  endfacet
  facet normal 0.774596 -0.447214 -0.447214
    outer loop
      vertex 20 -34.641 -17.282
      vertex 49.9778 0 0
      vertex 24.9889 -43.282 0
    endloop
  endfacet
  facet normal -0.774596 0.447213 -0.447215
    outer loop
      vertex -49.9778 0 0
      vertex -20 34.641 -17.282
      vertex -40 0 -17.282
    endloop
  endfacet
  facet normal -0.774596 0.447214 -0.447214
    outer loop
      vertex -20 34.641 -17.282
      vertex -49.9778 0 0
      vertex -24.9889 43.282 0
    endloop
  endfacet
  facet normal -0.774596 -0.447213 -0.447215
    outer loop
      vertex -20 -34.641 -17.282
      vertex -49.9778 0 0
      vertex -40 0 -17.282
    endloop
  endfacet
  facet normal -0.774596 -0.447214 -0.447214
    outer loop
      vertex -49.9778 0 0
      vertex -20 -34.641 -17.282
      vertex -24.9889 -43.282 0
    endloop
  endfacet
  facet normal 0.774596 0.447214 -0.447214
    outer loop
      vertex 49.9778 0 0
      vertex 20 34.641 -17.282
      vertex 24.9889 43.282 0
    endloop
  endfacet
  facet normal 0.774596 0.447213 -0.447215
    outer loop
      vertex 20 34.641 -17.282
      vertex 49.9778 0 0
      vertex 40 0 -17.282
    endloop
  endfacet
  facet normal -0.92388 -0.382683 0
    outer loop
      vertex -70.7107 -70.7107 0
      vertex -100 0 7
      vertex -100 0 0
    endloop
  endfacet
  facet normal -0.92388 -0.382683 0
    outer loop
      vertex -100 0 7
      vertex -70.7107 -70.7107 0
      vertex -70.7107 -70.7107 7
    endloop
  endfacet
  facet normal 0.382683 0.92388 -0
    outer loop
      vertex 70.7107 70.7107 0
      vertex 0 100 7
      vertex 70.7107 70.7107 7
    endloop
  endfacet
  facet normal 0.382683 0.92388 0
    outer loop
      vertex 0 100 7
      vertex 70.7107 70.7107 0
      vertex 0 100 0
    endloop
  endfacet
  facet normal 0.92388 0.382683 0
    outer loop
      vertex 100 0 7
      vertex 70.7107 70.7107 0
      vertex 70.7107 70.7107 7
    endloop
  endfacet
  facet normal 0.92388 0.382683 0
    outer loop
      vertex 70.7107 70.7107 0
      vertex 100 0 7
      vertex 100 0 0
    endloop
  endfacet
  facet normal 0.92388 -0.382683 0
    outer loop
      vertex 70.7107 -70.7107 7
      vertex 100 0 0
      vertex 100 0 7
    endloop
  endfacet
  facet normal 0.92388 -0.382683 0
    outer loop
      vertex 100 0 0
      vertex 70.7107 -70.7107 7
      vertex 70.7107 -70.7107 0
    endloop
  endfacet
  facet normal -0.382683 -0.92388 0
    outer loop
      vertex -70.7107 -70.7107 0
      vertex 0 -100 7
      vertex -70.7107 -70.7107 7
    endloop
  endfacet
  facet normal -0.382683 -0.92388 -0
    outer loop
      vertex 0 -100 7
      vertex -70.7107 -70.7107 0
      vertex 0 -100 0
    endloop
  endfacet
  facet normal -0.382683 0.92388 0
    outer loop
      vertex 0 100 0
      vertex -70.7107 70.7107 7
      vertex 0 100 7
    endloop
  endfacet
  facet normal -0.382683 0.92388 0
    outer loop
      vertex -70.7107 70.7107 7
      vertex 0 100 0
      vertex -70.7107 70.7107 0
    endloop
  endfacet
  facet normal -0.92388 0.382683 0
    outer loop
      vertex -100 0 0
      vertex -70.7107 70.7107 7
      vertex -70.7107 70.7107 0
    endloop
  endfacet
  facet normal -0.92388 0.382683 0
    outer loop
      vertex -70.7107 70.7107 7
      vertex -100 0 0
      vertex -100 0 7
    endloop
  endfacet
  facet normal 0.382683 -0.92388 0
    outer loop
      vertex 0 -100 0
      vertex 70.7107 -70.7107 7
      vertex 0 -100 7
    endloop
  endfacet
  facet normal 0.382683 -0.92388 0
    outer loop
      vertex 70.7107 -70.7107 7
      vertex 0 -100 0
      vertex 70.7107 -70.7107 0
    endloop
  endfacet
endsolid OpenSCAD_Model
